<?xml version="1.0" encoding="UTF-8"?>
<svg width="24px" height="24px" viewBox="0 0 24 24" version="1.1" xmlns="http://www.w3.org/2000/svg" xmlns:xlink="http://www.w3.org/1999/xlink">
    <title>arrow</title>
    <g id="Page-1" stroke="none" stroke-width="1" fill-rule="evenodd">
        <g id="svgexport-23" transform="translate(6.166000, 0.000000)" fill="current" fill-rule="nonzero">
            <path d="M0,11.9137026 C-0.00138603169,11.2104893 0.277521097,10.535714 0.77500518,10.0387026 L10.3160052,0.497702567 C11.00953,-0.173658884 12.1133391,-0.164697523 12.7958722,0.517835561 C13.4784053,1.20036865 13.4873666,2.30417778 12.8160052,2.99770257 L4.07700518,11.7367026 C4.02998433,11.7836047 4.00355829,11.8472889 4.00355829,11.9137026 C4.00355829,11.9801162 4.02998433,12.0438004 4.07700518,12.0907026 L12.8160052,20.8297026 C13.4873666,21.5232274 13.4784053,22.6270365 12.7958722,23.3095696 C12.1133391,23.9921027 11.00953,24.001064 10.3160052,23.3297026 L0.77500518,13.7887026 C0.277521097,13.2916911 -0.00138603169,12.6169158 0,11.9137026 Z" id="Path"></path>
        </g>
    </g>
</svg>