<?xml version="1.0" encoding="UTF-8"?>
<svg width="24px" height="24px" viewBox="0 0 24 24" version="1.1" xmlns="http://www.w3.org/2000/svg" xmlns:xlink="http://www.w3.org/1999/xlink">
    <title>arrow</title>
    <g id="Page-1" stroke="none" stroke-width="1" fill-rule="evenodd">
        <path d="M6,11.9137026 C5.99861397,11.2104893 6.2775211,10.535714 6.77500518,10.0387026 L16.3160052,0.497702567 C17.00953,-0.173658884 18.1133391,-0.164697523 18.7958722,0.517835561 C19.4784053,1.20036865 19.4873666,2.30417778 18.8160052,2.99770257 L10.0770052,11.7367026 C10.0299843,11.7836047 10.0035583,11.8472889 10.0035583,11.9137026 C10.0035583,11.9801162 10.0299843,12.0438004 10.0770052,12.0907026 L18.8160052,20.8297026 C19.4873666,21.5232274 19.4784053,22.6270365 18.7958722,23.3095696 C18.1133391,23.9921027 17.00953,24.001064 16.3160052,23.3297026 L6.77500518,13.7887026 C6.2775211,13.2916911 5.99861397,12.6169158 6,11.9137026 Z" id="Path" fill="current" fill-rule="nonzero" transform="translate(12.656854, 11.913703) scale(-1, 1) translate(-12.656854, -11.913703) "></path>
        <g id="svgexport-23" transform="translate(6.166000, 0.000000)"></g>
    </g>
</svg>